<svg width="60" height="68" viewBox="0 0 60 68" xmlns="http://www.w3.org/2000/svg" xmlns:xlink="http://www.w3.org/1999/xlink">
    <defs><path d="M23.51 51.523a.5.5 0 0 1-.5.477c-.29 0-.51-.21-.52-.477-.145-3.168-1.756-5.217-4.832-6.147C7.53 42.968 0 33.863 0 23 0 10.297 10.297 0 23 0s23 10.297 23 23c0 10.863-7.53 19.968-17.658 22.376-3.076.93-4.687 2.98-4.83 6.147z" id="ae96eeecd750ec2a83543f00c9bc789d__b"></path><filter x="-21.7%" y="-15.4%" width="143.5%" height="138.5%" filterUnits="objectBoundingBox" id="ae96eeecd750ec2a83543f00c9bc789d__a"><feGaussianBlur in="SourceGraphic" stdDeviation="3"></feGaussianBlur><feOffset dy="2"></feOffset><feComponentTransfer><feFuncA type="linear" slope=".3"></feFuncA></feComponentTransfer></filter></defs><g fill="none" fill-rule="evenodd"><g fill-rule="nonzero" transform="translate(7 5)" fill="currentColor"><use filter="url(#ae96eeecd750ec2a83543f00c9bc789d__a)" xlink:href="#ae96eeecd750ec2a83543f00c9bc789d__b"></use><use xlink:href="#ae96eeecd750ec2a83543f00c9bc789d__b"></use></g><path d="M30 68c-2.21 0-4-1.79-4-4s1.79-4 4-4 4 1.79 4 4-1.79 4-4 4z" fill="#fff" fill-rule="nonzero"></path><path d="M30 66a2 2 0 1 0 .001-3.999A2 2 0 0 0 30 66z" fill="currentColor"></path></g>
<path clip-rule="evenodd" d="M24 12v-2c-4 3-8.08 3.5-12 3.5S4 13 0 10v2c4.148 1.66 6.865 2.286 10 2.451V16a1 1 0 001 1h2a1 1 0 001-1v-1.548c3.135-.166 5.852-.793 10-2.452zM1 6h22a1 1 0 011 1v12.306c0 .977-.705 1.809-1.674 1.94-2.2.295-6.263.754-10.326.754-4.063 0-8.127-.459-10.326-.755A1.941 1.941 0 010 19.305V7a1 1 0 011-1zm14.5-1V3.5A.5.5 0 0015 3H9a.5.5 0 00-.5.5V5H7V3.5A2.5 2.5 0 019.5 1h5A2.5 2.5 0 0117 3.5V5z" fill-rule="evenodd"></path>
</svg>